<svg xmlns="http://www.w3.org/2000/svg" width="30.55" height="30.42" viewBox="0 0 30.55 30.42">
  <g>
    <circle cx="15.27" cy="15.14" r="2.06" fill="#0f766e"/>
    <path d="M7.22,11.49h3.23a6.011,6.011,0,0,0,.1,7.44H7.22a8.077,8.077,0,0,0,6.05,7.8v3.69A30.077,30.077,0,0,1,2.71,27.77a30.461,30.461,0,0,1,0-25.12A30.3,30.3,0,0,1,13.27,0V3.7A8.057,8.057,0,0,0,7.22,11.49Z" fill="#0f766e"/>
    <path d="M19.21,10.54a6.033,6.033,0,0,0-7.87,0,4.047,4.047,0,0,1,7.87,0Z" fill="#0f766e"/>
    <path d="M30.55,15.21a30.1,30.1,0,0,1-2.72,12.56,30.077,30.077,0,0,1-10.56,2.65V26.73a8.075,8.075,0,0,0,6.06-7.8H19.99a6.03,6.03,0,0,0,.11-7.44h3.23A8.055,8.055,0,0,0,17.27,3.7V0A30.3,30.3,0,0,1,27.83,2.65,30.13,30.13,0,0,1,30.55,15.21Z" fill="#0f766e"/>
    <path d="M19.25,19.7a4.052,4.052,0,0,1-7.96,0,6.03,6.03,0,0,0,7.96,0Z" fill="#0f766e"/>
  </g>
</svg>